<svg xmlns="http://www.w3.org/2000/svg" viewBox="0 0 64 64" width="512" height="512" style="fill:white"><g id="pool-house-building-home"><path d="M60.61,17.92A1.087,1.087,0,0,0,61,18a1.011,1.011,0,0,0,1-1V13a.993.993,0,0,0-.61-.92L55,9.39V3a1,1,0,0,0-1-1H49a1,1,0,0,0-1,1V6.44L42.39,4.08a.963.963,0,0,0-.78,0L25.97,10.67A5,5,0,0,0,21,6a4.865,4.865,0,0,0-.65.05A7,7,0,0,0,7.06,8.11a4,4,0,1,0,3.48,6.97,7.116,7.116,0,0,0,7.3-.23A4.913,4.913,0,0,0,21,16a5.566,5.566,0,0,0,1-.11V17a1,1,0,0,0,.45.83.985.985,0,0,0,.94.09L25,17.24V36H24a1,1,0,0,0-1,1v3H17V36.5a1.5,1.5,0,0,1,3,0V38h2V36.5a3.5,3.5,0,0,0-7,0V40H7V36.5a1.5,1.5,0,0,1,3,0V38h2V36.5a3.5,3.5,0,0,0-7,0V40H3a1,1,0,0,0-1,1v4a1,1,0,0,0,1,1H5v4.28a8.66,8.66,0,0,0-3-.48v2a6.214,6.214,0,0,1,3,.65V53H6.03a8.363,8.363,0,0,0,4.54,1.2A8.391,8.391,0,0,0,15.11,53H17v-.9a6.913,6.913,0,0,1,2.14-.3,6.677,6.677,0,0,1,3.79,1.07,8.547,8.547,0,0,0,4.78,1.33,8.536,8.536,0,0,0,4.77-1.33,7.265,7.265,0,0,1,7.59,0,9.237,9.237,0,0,0,9.55,0,7.283,7.283,0,0,1,7.6,0A8.574,8.574,0,0,0,62,54.2v-2a6.713,6.713,0,0,1-3.8-1.07,9.237,9.237,0,0,0-9.55,0,7.283,7.283,0,0,1-7.6,0,8.536,8.536,0,0,0-4.77-1.33,8.547,8.547,0,0,0-4.78,1.33,6.677,6.677,0,0,1-3.79,1.07,6.688,6.688,0,0,1-3.8-1.07,8.536,8.536,0,0,0-4.77-1.33,9.342,9.342,0,0,0-2.14.23V46H61a1,1,0,0,0,1-1V41a1,1,0,0,0-1-1V37a1,1,0,0,0-1-1H59V17.24ZM5,44H4V42H5Zm10,6.78c-.22.12-.43.23-.64.35a6.652,6.652,0,0,1-3.79,1.07A6.452,6.452,0,0,1,7,51.25V50h8ZM15,48H7V46h8Zm0-4H7V42h8ZM50,4h3V8.55L50,7.28ZM22.61,12.08A.993.993,0,0,0,22,13v.82a3.028,3.028,0,0,1-3.3-.92,1.009,1.009,0,0,0-.68-.37,1.035,1.035,0,0,0-.74.24,5.082,5.082,0,0,1-6.28.22.972.972,0,0,0-.74-.19,1.03,1.03,0,0,0-.66.39A2,2,0,1,1,8,10,1,1,0,0,0,9,9a5,5,0,0,1,5-5,4.951,4.951,0,0,1,4.77,3.51,1,1,0,0,0,1.27.66A2.951,2.951,0,0,1,21,8a3.009,3.009,0,0,1,3,3,2.844,2.844,0,0,1-.05.51ZM25,38H59v2H25ZM42,24a6,6,0,0,0-6,6v6H27V16.4l15-6.32L57,16.4V36H48V30A6,6,0,0,0,42,24Zm4,6v6H38V30a4,4,0,0,1,8,0ZM60,42v2H17V42ZM42.39,8.08a.991.991,0,0,0-.78,0L24,15.49V13.66L42,6.08l18,7.58v1.83Z"/><path d="M36,17H30a1,1,0,0,0-1,1v5a1,1,0,0,0,1,1h6a1,1,0,0,0,1-1V18A1,1,0,0,0,36,17Zm-1,5H31V19h4Z"/><path d="M48,24h6a1,1,0,0,0,1-1V18a1,1,0,0,0-1-1H48a1,1,0,0,0-1,1v5A1,1,0,0,0,48,24Zm1-5h4v3H49Z"/><rect x="39" y="31" width="2" height="2"/><path d="M53.424,53.8a8.614,8.614,0,0,0-4.777,1.328,7.262,7.262,0,0,1-7.595,0,9.249,9.249,0,0,0-9.55,0,6.65,6.65,0,0,1-3.8,1.072,6.647,6.647,0,0,1-3.8-1.072A8.6,8.6,0,0,0,19.135,53.8a8.6,8.6,0,0,0-4.772,1.328,6.652,6.652,0,0,1-3.8,1.072,6.651,6.651,0,0,1-3.795-1.072A8.594,8.594,0,0,0,2,53.8v2a6.646,6.646,0,0,1,3.8,1.072A8.6,8.6,0,0,0,10.567,58.2a8.6,8.6,0,0,0,4.773-1.328,6.648,6.648,0,0,1,3.8-1.072,6.647,6.647,0,0,1,3.8,1.072A8.6,8.6,0,0,0,27.705,58.2a8.615,8.615,0,0,0,4.775-1.327,7.258,7.258,0,0,1,7.594,0,9.252,9.252,0,0,0,9.55,0,7.265,7.265,0,0,1,7.6,0A8.616,8.616,0,0,0,62,58.2v-2a6.655,6.655,0,0,1-3.8-1.073A8.616,8.616,0,0,0,53.424,53.8Z"/><path d="M53.424,56.8a8.614,8.614,0,0,0-4.777,1.328,7.262,7.262,0,0,1-7.595,0,9.249,9.249,0,0,0-9.55,0,6.65,6.65,0,0,1-3.8,1.072,6.647,6.647,0,0,1-3.8-1.072A8.6,8.6,0,0,0,19.135,56.8a8.6,8.6,0,0,0-4.772,1.328,6.652,6.652,0,0,1-3.8,1.072,6.651,6.651,0,0,1-3.795-1.072A8.594,8.594,0,0,0,2,56.8v2a6.646,6.646,0,0,1,3.8,1.072A8.6,8.6,0,0,0,10.567,61.2a8.6,8.6,0,0,0,4.773-1.328,6.648,6.648,0,0,1,3.8-1.072,6.647,6.647,0,0,1,3.8,1.072A8.6,8.6,0,0,0,27.705,61.2a8.615,8.615,0,0,0,4.775-1.327,7.258,7.258,0,0,1,7.594,0,9.252,9.252,0,0,0,9.55,0,7.265,7.265,0,0,1,7.6,0A8.616,8.616,0,0,0,62,61.2v-2a6.655,6.655,0,0,1-3.8-1.073A8.616,8.616,0,0,0,53.424,56.8Z"/></g></svg>