<svg xmlns="http://www.w3.org/2000/svg" id="Capa_1" enable-background="new 0 0 512 512" height="512" viewBox="0 0 512 512" width="512" style="fill:white"><g><path d="m483.516 112.758-109.787-64.046c-3.605-2.103-8.234-.885-10.339 2.721-2.104 3.607-.886 8.235 2.721 10.339l109.786 64.045c4.092 2.93 5.077 6.678 2.955 11.242-2.929 4.081-6.673 5.066-11.231 2.953l-179.912-104.948c-2.355-1.372-5.264-1.372-7.619 0l-179.929 104.959c-4.141 2.153-7.878 1.166-11.21-2.96-2.281-3.917-.955-8.962 2.951-11.245l187.863-109.586c2.552-1.488 5.726-1.489 8.278 0l49.612 28.939c3.608 2.105 8.237.884 10.339-2.721 2.104-3.607.885-8.236-2.721-10.339l-49.612-28.939c-7.253-4.229-16.261-4.229-23.514 0l-187.868 109.589c-11.098 6.486-14.863 20.801-8.388 31.921 6.16 10.541 21.352 14.588 31.907 8.39l43.303-25.26v51.126c0 4.176 3.385 7.56 7.56 7.56s7.56-3.384 7.56-7.56v-59.946l117.679-68.646 117.679 68.646v165.715l-51.236 29.586c-3.163-11.808-13.957-20.527-26.749-20.527h-46.136c-18.622-7.969-38.799-15.593-59.277-15.593-18.219 0-35.823 5.527-51.96 16.162v-82.446c0-4.176-3.385-7.56-7.56-7.56s-7.56 3.384-7.56 7.56v94.313c-10.067 9.261-19.082 20.5-26.201 32.149l-14.864-14.864c-2.952-2.951-7.738-2.951-10.691 0l-16.124 16.123-8.278-8.278c-2.952-2.951-7.739-2.951-10.691 0l-45.149 45.149c-2.952 3.564-2.952 7.128 0 10.692l122.617 122.613c3.564 2.952 7.127 2.952 10.691 0l66.617-66.618c2.953-2.952 2.952-7.738 0-10.691l-14.773-14.773h50.394c4.176 0 7.56-3.384 7.56-7.56s-3.384-7.56-7.56-7.56h-65.514l-53.182-53.182c8.17-14.171 36.243-56.11 82.228-56.11 19.027 0 37.831 7.693 55.14 15.084.87.337 1.794.509 2.727.509h47.546c6.839 0 12.419 5.49 12.566 12.293-.588 6.77-4.783 12.841-12.567 12.841h-91.281c-4.175 0-7.56 3.384-7.56 7.56s3.385 7.56 7.56 7.56h91.281c11.171 0 20.983-6.55 25.348-16.577l105.595-60.975c6.998-3.204 12.72-1.664 17.168 4.62 3.811 6.574-.414 13.791-5.471 17.741l-127.431 99.601c-7.445 5.827-16.757 9.036-26.225 9.036h-24.987c-4.176 0-7.56 3.384-7.56 7.56s3.384 7.56 7.56 7.56h24.987c12.83 0 25.453-4.351 35.539-12.247l127.046-99.3c13.046-9.93 17.325-24.789 9.631-37.518-7.506-12.417-24.579-17.782-37.816-10.148l-30.278 17.484v-148.164l43.304 25.261c11.114 6.481 25.522 2.769 31.908-8.394 8.892-15.544-3.008-28.777-8.395-31.921zm-336.451 380.991-111.925-111.924 34.458-34.458 111.925 111.925zm45.149-45.147-98.301-98.302 10.778-10.777 98.301 98.301z"/><path d="m270.889 200.944c2.963 2.957 7.764 2.946 10.713-.03l23.327-23.544c2.938-2.966 2.916-7.752-.05-10.691-2.965-2.937-7.752-2.917-10.691.05l-17.985 18.153-4.816-4.81c-2.956-2.95-7.742-2.946-10.692.008-2.95 2.955-2.946 7.741.008 10.692z"/><path d="m283.903 234.402c30.065 0 54.523-24.46 54.523-54.524s-24.459-54.523-54.523-54.523-54.524 24.459-54.524 54.523 24.459 54.524 54.524 54.524zm0-93.928c21.727 0 39.404 17.677 39.404 39.404 0 21.728-17.677 39.405-39.404 39.405-21.728 0-39.405-17.677-39.405-39.405s17.676-39.404 39.405-39.404z"/><path d="m281.623 281.017c1.52.469 3.04.469 4.559 0 24.496-7.747 45.349-21.332 60.304-39.288 15.21-18.261 23.249-39.736 23.249-62.1v-55.199c0-2.812-1.561-5.392-4.053-6.697l-78.273-40.99c-2.196-1.15-4.816-1.15-7.014 0l-78.274 40.99c-2.491 1.305-4.053 3.885-4.053 6.697v55.199c0 22.364 8.04 43.838 23.25 62.1 14.955 17.957 35.809 31.542 60.305 39.288zm-68.435-152.011 70.714-37.032 70.714 37.032v50.623c0 38.144-27.67 71.772-70.714 86.228-43.044-14.456-70.714-48.084-70.714-86.228z"/></g></svg>