<svg xmlns="http://www.w3.org/2000/svg" xmlns:xlink="http://www.w3.org/1999/xlink" version="1.1" id="Capa_1" x="0px" y="0px" viewBox="0 0 512 512" style="fill:white" xml:space="preserve">
<g>
	<g>
		<path d="M408.069,416.66c-1.87-1.86-4.44-2.92-7.08-2.92c-2.63,0-5.21,1.06-7.07,2.92c-1.86,1.869-2.93,4.439-2.93,7.08    c0,2.619,1.07,5.199,2.93,7.06c1.87,1.87,4.44,2.94,7.07,2.94c2.64,0,5.21-1.07,7.08-2.94c1.86-1.86,2.92-4.43,2.92-7.06    C410.989,421.099,409.929,418.519,408.069,416.66z"/>
	</g>
</g>
<g>
	<g>
		<path d="M174.699,416.66c-1.85-1.86-4.43-2.92-7.06-2.92c-2.64,0-5.22,1.06-7.08,2.92c-1.86,1.859-2.92,4.439-2.92,7.08    c0,2.63,1.06,5.199,2.92,7.06c1.86,1.87,4.44,2.94,7.08,2.94c2.63,0,5.2-1.07,7.06-2.94c1.87-1.86,2.94-4.43,2.94-7.06    C177.639,421.099,176.569,418.519,174.699,416.66z"/>
	</g>
</g>
<g>
	<g>
		<path d="M214.969,356.93c-1.86-1.86-4.44-2.92-7.07-2.92s-5.21,1.06-7.07,2.92c-1.86,1.87-2.93,4.44-2.93,7.08    c0,2.63,1.07,5.2,2.93,7.07c1.86,1.859,4.44,2.93,7.07,2.93s5.21-1.07,7.07-2.93c1.86-1.87,2.93-4.44,2.93-7.07    C217.899,361.37,216.829,358.8,214.969,356.93z"/>
	</g>
</g>
<g>
	<g>
		<path d="M256,100h-20c-0.288,0-0.54,0.015-0.77,0.039c-5.162,0.395-9.23,4.699-9.23,9.961v70c0,5.522,4.477,10,10,10    s10-4.478,10-10v-20h10c16.542,0,30-13.458,30-30S272.542,100,256,100z M256,140h-10v-20h10c5.514,0,10,4.486,10,10    C266,135.514,261.514,140,256,140z"/>
	</g>
</g>
<g>
	<g>
		<path d="M505.436,90.608l-246-90c-2.219-0.811-4.653-0.811-6.872,0l-246,90C2.622,92.051,0,95.802,0,100v402    c0,5.522,4.477,10,10,10h492c5.523,0,10-4.478,10-10V100C512,95.802,509.378,92.051,505.436,90.608z M20,150h166v20H20V150z     M186,190v20H80v-20H186z M120.878,344.09c1.972,2.15,4.667,3.24,7.373,3.24c2.415,0,4.836-0.869,6.756-2.631l31.864-29.226    c13.108,5.638,24.176,11.772,33.338,17.723c31,20.134,46.524,41.865,50.791,48.469v32.065h-34.104    c-4.651-22.94-24.971-40.263-49.263-40.263s-44.612,17.322-49.263,40.263H80v-75.426c16.909-9.609,36.624-28.34,45.019-36.684    c7.368,1.789,14.327,3.787,20.89,5.942l-24.42,22.398C117.418,333.693,117.146,340.019,120.878,344.09z M197.899,423.734    c0,16.688-13.577,30.266-30.266,30.266c-16.688,0-30.266-13.577-30.266-30.266c0-16.689,13.577-30.267,30.266-30.267    C184.322,393.468,197.899,407.045,197.899,423.734z M80,314.462v-20.239c7.306,0.676,14.327,1.558,21.065,2.623    C93.915,303.403,86.536,309.607,80,314.462z M60,492H20V190h40V492z M432,384.214c-8.549-6.722-19.313-10.747-31.006-10.747    c-23.74,0-43.675,16.548-48.911,38.712h-17.712l-23.372-23.372v-6.078h11.14c9.93,0,19.27-3.87,26.29-10.89    c6.025-6.026,9.722-13.762,10.65-22.111c18.262-1.858,43.778-3.947,72.921-4.909V384.214z M431.26,423.734    c0,16.688-13.577,30.266-30.266,30.266c-16.689,0-30.266-13.577-30.266-30.266c0-16.689,13.577-30.267,30.266-30.267    C417.683,393.467,431.26,407.045,431.26,423.734z M312.986,362.729c2.758-4.721,8.384-7.917,16.844-9.524    c0.716-0.104,3.547-0.508,8.167-1.091c-2.592,6.213-8.722,10.601-15.857,10.615H312.986z M432,324.806    c-59.675,1.934-104.823,8.572-105.294,8.643c-0.121,0.018-0.24,0.038-0.36,0.061c-22.133,4.127-35.347,17.962-35.347,37.01v22.431    c0,2.652,1.054,5.195,2.929,7.071l29.23,29.229c1.875,1.875,4.418,2.929,7.071,2.929h21.222    c4.03,23.708,24.705,41.82,49.542,41.82c11.693,0,22.458-4.024,31.006-10.746V492H80v-58.27h38.368    c4.648,22.944,24.97,40.27,49.264,40.27c24.295,0,44.616-17.326,49.265-40.27H261c5.523,0,10-4.478,10-10v-44.881    c0-1.688-0.427-3.349-1.242-4.827c-0.423-0.767-7.011-12.496-21.939-27.738l19.223-14.576c4.401-3.337,5.263-9.609,1.926-14.01    c-3.337-4.401-9.611-5.263-14.01-1.926l-22.065,16.731c-6.038-5.054-12.897-10.235-20.651-15.336    c-23.587-15.517-50.653-27.163-80.445-34.613c-16.437-4.111-33.748-6.912-51.797-8.453V270h166v10c0,5.522,4.477,10,10,10    s10-4.478,10-10v-10h166V324.806z M432,250H80v-20h116h120h116V250z M206,210V80h100v130H206z M432,210H326v-20h106V210z M492,492    h-40V190h40V492z M492,170H326v-20h166V170z M492,130H326V70c0-5.522-4.477-10-10-10H196c-5.523,0-10,4.478-10,10v60H20v-23.011    l236-86.341l236,86.341V130z"/>
	</g>
</g>
<g>
</g>
<g>
</g>
<g>
</g>
<g>
</g>
<g>
</g>
<g>
</g>
<g>
</g>
<g>
</g>
<g>
</g>
<g>
</g>
<g>
</g>
<g>
</g>
<g>
</g>
<g>
</g>
<g>
</g>
</svg>